<?xml version="1.0" encoding="iso-8859-1"?>
<!-- Generator: Adobe Illustrator 19.0.0, SVG Export Plug-In . SVG Version: 6.00 Build 0)  -->
<svg version="1.1" id="Capa_1" xmlns="http://www.w3.org/2000/svg" xmlns:xlink="http://www.w3.org/1999/xlink" x="0px" y="0px"
	 viewBox="0 0 512 512" style="enable-background:new 0 0 512 512;" xml:space="preserve">
<g>
	<g>
		<path d="M196,60.01c-5.53,0-9.99,4.452-9.99,9.99c0,5.535,4.454,9.988,9.99,9.988c5.535,0,9.99-4.452,9.99-9.988
			C205.99,64.47,201.538,60.01,196,60.01z"/>
	</g>
</g>
<g>
	<g>
		<path d="M403.527,60.957l-13.479-40.435C385.962,8.247,374.521,0,361.58,0H150.42c-12.941,0-24.382,8.247-28.466,20.518
			l-13.481,40.439C95.562,64.305,86,76.057,86,90v40c0,5.523,4.478,10,10,10h11.016c1.635,15.232,35.43,330.09,37.065,345.319
			C145.779,500.53,158.599,512,173.9,512h164.2c15.302,0,28.121-11.47,29.824-26.723c1.631-15.192,35.422-330.018,37.06-345.277H416
			c5.522,0,10-4.477,10-10V90C426,76.057,416.438,64.305,403.527,60.957z M348.041,483.101c-0.565,5.073-4.84,8.899-9.941,8.899
			H173.9c-5.102,0-9.376-3.826-9.938-8.857L155.682,406h200.635L348.041,483.101z M358.465,386H153.536l-15.027-140h234.984
			L358.465,386z M375.639,226H136.361l-9.231-86h257.74L375.639,226z M406,120c-53.392,0-246.239,0-300,0V90c0-5.514,4.486-10,10-10
			h40.02c5.522,0,10-4.477,10-10s-4.478-10-10-10h-26.146l11.055-33.162c1.361-4.09,5.176-6.838,9.491-6.838h211.16
			c4.315,0,8.13,2.748,9.493,6.843L382.126,60H236.01c-5.522,0-10,4.477-10,10s4.478,10,10,10H396c5.514,0,10,4.486,10,10V120z"/>
	</g>
</g>
<g>
	<g>
		<path d="M256,266c-39.252,0-70,21.962-70,50c0,28.038,30.748,50,70,50s70-21.962,70-50C326,287.962,295.252,266,256,266z M256,346
			c-21.291,0-39.981-8.58-47.02-20.1h94.039C295.981,337.42,277.291,346,256,346z M208.98,306c7.039-11.52,25.729-20,47.02-20
			s39.981,8.48,47.02,20H208.98z"/>
	</g>
</g>
<g>
</g>
<g>
</g>
<g>
</g>
<g>
</g>
<g>
</g>
<g>
</g>
<g>
</g>
<g>
</g>
<g>
</g>
<g>
</g>
<g>
</g>
<g>
</g>
<g>
</g>
<g>
</g>
<g>
</g>
</svg>
