<?xml version="1.0" encoding="iso-8859-1"?>
<!-- Generator: Adobe Illustrator 19.0.0, SVG Export Plug-In . SVG Version: 6.00 Build 0)  -->
<svg version="1.1" id="Layer_1" xmlns="http://www.w3.org/2000/svg" xmlns:xlink="http://www.w3.org/1999/xlink" x="0px" y="0px"
	 viewBox="0 0 512 512" style="enable-background:new 0 0 512 512;" xml:space="preserve">
<g>
	<g>
		<path d="M485.513,142.475c-1.966-3.968-6.778-5.59-10.742-3.624c-3.967,1.966-5.589,6.776-3.624,10.742
			c16.469,33.234,24.82,69.034,24.82,106.406c0,0.636-0.019,1.267-0.025,1.901c-30.965-6.579-62.742-9.917-94.573-9.917
			c-26.447,0-52.962,2.316-78.933,6.888c-4.73-22.088-11.172-43.925-19.207-65.103c43.81-30.91,81.412-68.987,111.924-113.264
			c13.032,11.522,24.9,24.502,35.286,38.834c2.597,3.584,7.611,4.386,11.196,1.786c3.585-2.599,4.385-7.611,1.786-11.196
			c-23.26-32.095-54.087-58.73-89.148-77.027C338.04,9.994,297.142,0,256,0C187.62,0,123.333,26.629,74.981,74.981
			C26.629,123.333,0,187.62,0,256s26.629,132.667,74.981,181.019C123.333,485.371,187.62,512,256,512s132.667-26.629,181.019-74.981
			C485.371,388.667,512,324.38,512,256C512,216.137,503.089,177.942,485.513,142.475z M256,16.033
			c41.9,0,82.593,11.105,118.252,31.3c-25.3,36.866-56.177,68.971-91.924,95.54c-22.758-44.211-52.448-84.057-88.414-118.679
			C213.726,18.883,234.536,16.033,256,16.033z M142.087,44.84l3.26,2.867c39.396,34.635,71.167,75.913,94.517,122.777
			c-60.201,33.94-128.373,51.846-197.643,51.846c-7.875,0-15.826-0.244-23.716-0.701C29.519,145.179,76.691,80.261,142.087,44.84z
			 M255.33,494.938c-0.129,0.336-0.227,0.676-0.309,1.015c-60.121-0.242-115.091-22.707-157.117-59.589
			c49.07-56.317,112.065-97.548,182.891-119.733c0.925,11.112,1.393,22.319,1.393,33.431
			C282.188,400.026,273.151,448.769,255.33,494.938z M310.459,489.73c14.577-44.951,21.967-91.885,21.967-139.667
			c0-15.187-0.756-30.467-2.249-45.533c23.431-4.188,47.346-6.309,71.193-6.309c29.995,0,59.877,3.321,88.889,9.856
			C470.31,397.871,399.918,468.893,310.459,489.73z M493.223,292.309c-29.991-6.713-60.867-10.121-91.853-10.121
			c-27.339,0-54.763,2.681-81.508,7.97c-4.1,0.81-6.889,4.635-6.409,8.786c1.951,16.845,2.941,34.044,2.941,51.119
			c0,49.094-8.085,97.251-24.017,143.151c-6.618,1.01-13.328,1.734-20.109,2.19c17.208-46.441,25.955-95.303,25.955-145.341
			c0-14.901-0.808-29.966-2.404-44.775c-0.525-4.869-5.47-8.199-10.183-6.847c-77.394,22.22-146.254,66.085-199.437,126.957
			c-4.299-4.309-8.429-8.786-12.393-13.41c15.494-17.574,32.456-33.995,50.47-48.812c3.419-2.812,3.912-7.865,1.099-11.284
			c-2.812-3.42-7.865-3.911-11.284-1.099c-17.957,14.77-34.899,31.082-50.454,48.509C36.71,363.25,19.683,319.406,16.569,271.826
			c8.59,0.483,17.198,0.742,25.652,0.742c75.927,0,150.854-19.179,217.317-55.543c5.644,16.11,10.28,32.647,13.837,49.352
			c-47.718,14.026-92.482,35.697-133.169,64.479c-3.288,2.326-4.341,6.891-2.39,10.417c2.28,4.123,7.798,5.397,11.651,2.672
			c41.208-29.151,86.756-50.739,135.379-64.166c4.034-1.114,6.532-5.145,5.736-9.252c-4.475-23.092-10.944-45.95-19.229-67.938
			c-1.716-4.551-7.276-6.55-11.498-4.123c-66.069,37.987-141.325,58.068-217.632,58.068c-8.625,0-17.419-0.278-26.185-0.798
			c0.006-6.107,0.239-12.161,0.697-18.154c8.475,0.509,17.024,0.781,25.488,0.781c74.6,0,147.974-19.971,212.19-57.756
			c3.582-2.107,4.96-6.603,3.174-10.354c-24.237-50.925-57.887-95.684-99.999-133.099c6.113-2.76,12.367-5.257,18.738-7.506
			c39.874,36.881,72.132,80.195,95.869,128.776c2.133,4.367,7.861,5.838,11.836,3.023C324.78,132.59,359.73,97.012,387.957,55.701
			c5.057,3.326,9.99,6.848,14.792,10.554c-30.734,44.899-69.002,83.227-113.804,113.916c-3.088,2.115-4.301,6.084-2.923,9.564
			c9.728,24.577,17.221,50.144,22.271,75.988c0.849,4.342,5.059,7.177,9.398,6.332c27.447-5.335,55.6-8.039,83.678-8.039
			c31.63,0,63.199,3.418,93.913,10.148C494.823,280.279,494.133,286.33,493.223,292.309z"/>
	</g>
</g>
<g>
</g>
<g>
</g>
<g>
</g>
<g>
</g>
<g>
</g>
<g>
</g>
<g>
</g>
<g>
</g>
<g>
</g>
<g>
</g>
<g>
</g>
<g>
</g>
<g>
</g>
<g>
</g>
<g>
</g>
</svg>
