<?xml version="1.0" encoding="iso-8859-1"?>
<!-- Generator: Adobe Illustrator 19.0.0, SVG Export Plug-In . SVG Version: 6.00 Build 0)  -->
<svg version="1.1" id="Capa_1" xmlns="http://www.w3.org/2000/svg" xmlns:xlink="http://www.w3.org/1999/xlink" x="0px" y="0px"
	 viewBox="0 0 512.002 512.002" style="enable-background:new 0 0 512.002 512.002;" xml:space="preserve">
<g>
	<g>
		<path d="M452.002,366.003h-21.328c9.522-10.623,15.327-24.645,15.327-40c0-32.734-26.354-59.412-58.957-59.974
			c2.094-27.646-5.28-47.47-22.405-60.382c-16.465-12.415-39.441-16.292-61.662-20.041c-41.939-7.077-67.87-13.786-74.338-47.206
			c-0.535-2.763-2.21-5.173-4.613-6.638c-2.404-1.466-5.313-1.851-8.014-1.06c-42.357,12.398-70.436,33.521-83.458,62.781
			c-12.423,27.918-7.807,56.105-3.005,72.519h-3.548c-33.084,0-60,26.916-60,60c0,15.355,5.805,29.377,15.327,40H60
			c-33.084,0-60,26.916-60,60s26.916,60,60,60h392.002c33.084,0,60-26.916,60-60C512.002,392.919,485.086,366.003,452.002,366.003z
			 M150.827,201.615c9.551-21.462,30.059-37.779,61.028-48.59c5.696,16.703,16.582,29.009,33.041,37.436
			c16.394,8.393,35.895,11.684,54.754,14.866c45.303,7.645,71.647,14.502,67.349,60.676h-216.43
			C146.481,254.555,139.303,227.51,150.827,201.615z M126.001,286.003h260c22.056,0,40,17.944,40,40c0,22.056-17.944,40-40,40h-260
			c-22.056,0-40-17.945-40-40C86.001,303.947,103.945,286.003,126.001,286.003z M452.002,466.003H60c-22.056,0-40-17.944-40-40
			c0-22.056,17.944-40,40-40h392.002c22.056,0,40,17.944,40,40C492.002,448.058,474.058,466.003,452.002,466.003z"/>
	</g>
</g>
<g>
	<g>
		<path d="M266.107,67.474c-3.821-11.114-5.74-17.823-0.748-26.472c2.761-4.783,1.123-10.898-3.66-13.66
			c-4.784-2.761-10.898-1.124-13.66,3.66c-9.79,16.958-4.831,31.384-0.845,42.976c3.759,10.933,5.652,17.524,0.845,25.849
			c-2.761,4.782-1.123,10.898,3.66,13.66c1.575,0.909,3.294,1.342,4.991,1.342c3.455,0,6.817-1.794,8.669-5.002
			C274.955,93.208,270.049,78.939,266.107,67.474z"/>
	</g>
</g>
<g>
	<g>
		<path d="M89.755,117.476c-3.821-11.114-5.74-17.823-0.748-26.472c2.761-4.783,1.123-10.898-3.66-13.66
			c-4.784-2.761-10.899-1.124-13.66,3.66c-9.79,16.958-4.83,31.384-0.845,42.976c3.76,10.933,5.653,17.524,0.845,25.849
			c-2.761,4.782-1.123,10.898,3.66,13.66c1.575,0.909,3.294,1.342,4.991,1.342c3.456,0,6.817-1.794,8.669-5.002
			C98.603,143.21,93.697,128.941,89.755,117.476z"/>
	</g>
</g>
<g>
	<g>
		<path d="M441.192,117.476c-3.821-11.114-5.74-17.823-0.747-26.472c2.761-4.783,1.122-10.898-3.66-13.66
			c-4.784-2.761-10.898-1.124-13.66,3.66c-9.79,16.958-4.831,31.384-0.845,42.976c3.758,10.933,5.651,17.524,0.844,25.849
			c-2.761,4.782-1.123,10.898,3.66,13.66c1.575,0.909,3.294,1.342,4.991,1.342c3.456,0,6.817-1.794,8.67-5.002
			C450.041,143.21,445.135,128.941,441.192,117.476z"/>
	</g>
</g>
<g>
	<g>
		<path d="M191.954,301.003h-65.953c-5.523,0-10,4.478-10,10c0,5.522,4.477,10,10,10h65.953c5.523,0,10-4.478,10-10
			C201.954,305.48,197.477,301.003,191.954,301.003z"/>
	</g>
</g>
<g>
	<g>
		<path d="M222.001,301.003h-0.324c-5.523,0-10,4.478-10,10c0,5.522,4.477,10,10,10h0.324c5.523,0,10-4.478,10-10
			C232.001,305.48,227.524,301.003,222.001,301.003z"/>
	</g>
</g>
<g>
</g>
<g>
</g>
<g>
</g>
<g>
</g>
<g>
</g>
<g>
</g>
<g>
</g>
<g>
</g>
<g>
</g>
<g>
</g>
<g>
</g>
<g>
</g>
<g>
</g>
<g>
</g>
<g>
</g>
</svg>
